<?xml version="1.0" standalone="no"?>
<!DOCTYPE svg PUBLIC "-//W3C//DTD SVG 20010904//EN"
 "http://www.w3.org/TR/2001/REC-SVG-20010904/DTD/svg10.dtd">
<svg version="1.0" xmlns="http://www.w3.org/2000/svg"
 width="355.000000pt" height="355.000000pt" viewBox="0 0 355.000000 355.000000"
 preserveAspectRatio="xMidYMid meet">
<metadata>
Created by potrace 1.11, written by Peter Selinger 2001-2013
</metadata>
<g transform="translate(0.000000,355.000000) scale(0.100000,-0.100000)"
fill="#000000" stroke="none">
<path d="M1262 3358 c-19 -19 -17 -509 3 -575 20 -68 80 -133 160 -174 36 -19
65 -41 65 -49 -1 -24 -35 -94 -85 -171 -152 -235 -219 -466 -232 -796 -5 -116
-3 -156 7 -168 11 -13 72 -15 476 -15 407 0 464 2 478 16 12 12 16 37 16 108
0 172 50 374 121 492 19 31 74 108 123 172 49 65 103 146 120 182 29 61 31 72
31 180 0 131 -14 171 -80 228 -44 39 -71 47 -160 47 -156 -1 -243 -98 -233
-257 5 -82 21 -119 70 -166 56 -56 177 -79 202 -39 18 28 -5 50 -67 62 -88 18
-127 67 -127 160 0 99 48 151 147 161 114 11 174 -57 175 -200 0 -98 -30 -163
-142 -306 -97 -125 -152 -214 -190 -311 l-27 -71 -8 48 c-19 129 -97 320 -192
467 -47 74 -93 163 -93 183 0 6 20 19 45 29 73 27 139 86 171 152 l29 58 4
242 c4 265 0 309 -28 318 -29 9 -42 -1 -115 -94 l-69 -88 -46 23 c-99 51 -216
51 -307 0 l-43 -24 -77 94 c-74 91 -97 107 -122 82z m188 -268 c11 0 40 13 66
29 93 60 192 60 285 0 65 -41 80 -38 129 26 23 30 47 55 52 55 17 0 5 -369
-14 -410 -65 -145 -319 -200 -505 -109 -66 32 -102 70 -122 128 -6 20 -11 107
-11 218 l0 184 50 -60 c30 -36 59 -61 70 -61z m296 -558 c10 -39 50 -116 102
-197 135 -210 197 -417 209 -707 l6 -138 -122 0 -121 0 0 115 c0 104 -2 115
-20 125 -14 8 -26 8 -40 0 -18 -10 -20 -21 -20 -125 l0 -115 -80 0 -80 0 0
105 c0 91 -3 108 -20 125 -23 23 -48 17 -61 -17 -5 -13 -9 -67 -9 -119 l0 -94
-122 0 -121 0 6 128 c14 292 77 502 215 718 66 104 91 152 98 190 l6 32 84 0
c83 0 84 0 90 -26z"/>
<path d="M1507 3033 c-12 -12 -7 -50 8 -63 17 -14 51 -5 59 16 13 35 -41 73
-67 47z"/>
<path d="M1750 3025 c-15 -19 -4 -52 21 -60 38 -12 65 35 37 63 -16 16 -43 15
-58 -3z"/>
<path d="M1552 2868 c-24 -24 -12 -55 38 -102 27 -25 58 -46 68 -46 22 0 122
102 122 124 0 8 -9 20 -19 26 -28 14 -194 13 -209 -2z"/>
<path d="M1240 1180 c0 -44 7 -60 63 -147 74 -113 106 -148 153 -165 19 -7 34
-17 34 -23 0 -19 -73 -84 -108 -96 -31 -11 -32 -13 -32 -66 l0 -55 38 7 c96
17 160 82 279 279 43 72 93 150 111 174 26 34 32 51 32 92 0 45 -2 50 -23 50
-34 0 -91 -53 -133 -123 -107 -180 -150 -187 -241 -39 -26 42 -55 86 -63 97
-23 31 -71 65 -91 65 -16 0 -19 -8 -19 -50z"/>
<path d="M1970 1175 c0 -49 2 -55 20 -55 33 0 111 -82 164 -172 125 -212 180
-274 265 -303 70 -24 72 -23 69 43 -3 51 -5 57 -27 60 -39 6 -111 90 -189 219
-40 67 -93 144 -118 172 -47 53 -113 91 -157 91 -26 0 -27 -2 -27 -55z"/>
</g>
</svg>
